<?xml version="1.0" encoding="UTF-8" standalone="no"?>
<svg
   width="100"
   height="100"
   viewBox="1000 x 1000"
   version="1.1"
   id="svg2381"
   xmlns:sf="http://apple.com/sf"
   sf:symbol-version="1.0"
   xmlns="http://www.w3.org/2000/svg"
   xmlns:svg="http://www.w3.org/2000/svg"
   xmlns:rdf="http://www.w3.org/1999/02/22-rdf-syntax-ns#"
   xmlns:cc="http://creativecommons.org/ns#"
   xmlns:dc="http://purl.org/dc/elements/1.1/">
  <defs
     id="defs2375" />
  <metadata
     id="metadata2378">
    <rdf:RDF>
      <cc:Work
         rdf:about="">
        <dc:format>image/svg+xml</dc:format>
        <dc:type
           rdf:resource="http://purl.org/dc/dcmitype/StillImage" />
        <dc:identifier>1-1</dc:identifier>
        <cc:license
           rdf:resource="http://creativecommons.org/licenses/by/4.0/" />
      </cc:Work>
    </rdf:RDF>
  </metadata>
  <g
     id="layer1"
     style="display:inline">
    <g
       id="g1"
       style="display:inline"
       transform="matrix(2.8620678,0,0,2.8620678,-0.48369598,-0.48369582)">
      <g
         id="g2964"
         transform="matrix(0.13773763,0,0,0.13773763,1.512333,2.6646086)">
        <path
           style="fill:#000000;fill-opacity:1;stroke:#000000;stroke-width:0.249068px;stroke-linecap:butt;stroke-linejoin:miter;stroke-opacity:1"
           d="m 97.073919,230.80975 c -19.695468,-1.86177 -35.266225,-34.38907 -30.550111,-50.8831 2.859511,-10.00079 4.399291,-18.72979 4.535716,-28.27398 0.359849,-25.17476 -13.692208,-25.51271 -9.827382,-74.889957 3.900425,-49.832067 83.607738,-51.011562 99.029758,-36.174368 18.77631,18.06428 22.06916,44.29544 1e-5,63.640095 -35.83215,31.40857 -31.95045,26.22174 -35.83215,45.5529 -5.31712,26.47965 7.20149,27.08877 10.20574,38.98931 8.61145,34.11194 -18.85326,43.80755 -37.561581,42.0391 z"
           id="path2944" />
        <ellipse
           style="opacity:0.9934;fill:#000003;fill-opacity:1;stroke-width:0.291483;stroke-linejoin:round"
           id="path2946"
           cx="158.52664"
           cy="-2.1162035"
           rx="16.778769"
           ry="24.042807"
           transform="matrix(0.9969391,0.07818204,-0.08706985,0.99620221,0,0)" />
        <ellipse
           style="opacity:0.9934;fill:#000000;fill-opacity:1;stroke-width:0.289999;stroke-linejoin:round"
           id="path2948"
           cx="123.44703"
           cy="13.455953"
           rx="13.607142"
           ry="17.008928" />
        <ellipse
           style="opacity:0.9934;fill:#000000;fill-opacity:1;stroke-width:0.289999;stroke-linejoin:round"
           id="path2950"
           cx="93.586914"
           cy="22.980951"
           rx="8.6934528"
           ry="11.339286" />
        <ellipse
           style="opacity:0.9934;fill:#000000;fill-opacity:1;stroke-width:0.289999;stroke-linejoin:round"
           id="path2952"
           cx="75.973221"
           cy="33.186314"
           rx="6.4255953"
           ry="7.5595236" />
        <ellipse
           style="opacity:0.9934;fill:#000000;fill-opacity:1;stroke-width:0.289999;stroke-linejoin:round"
           id="path2954"
           cx="63.726795"
           cy="47.549404"
           rx="5.2916665"
           ry="4.9136906" />
      </g>
    </g>
  </g>
</svg>
