<?xml version="1.0" encoding="UTF-8" standalone="no"?>
<!-- Created with Inkscape (http://www.inkscape.org/) -->

<svg
   width="200"
   height="200"
   viewBox="0 0 52.916662 52.916668"
   version="1.1"
   id="svg1388"
   xml:space="preserve"
   inkscape:version="1.4.2 (ebf0e940, 2025-05-08)"
   sodipodi:docname="image_icon.svg"
   inkscape:export-filename="image_loadt.png"
   inkscape:export-xdpi="96"
   inkscape:export-ydpi="96"
   xmlns:inkscape="http://www.inkscape.org/namespaces/inkscape"
   xmlns:sodipodi="http://sodipodi.sourceforge.net/DTD/sodipodi-0.dtd"
   xmlns="http://www.w3.org/2000/svg"
   xmlns:svg="http://www.w3.org/2000/svg"><sodipodi:namedview
     id="namedview1390"
     pagecolor="#ffffff"
     bordercolor="#000000"
     borderopacity="0.25"
     inkscape:showpageshadow="2"
     inkscape:pageopacity="0.0"
     inkscape:pagecheckerboard="0"
     inkscape:deskcolor="#d1d1d1"
     inkscape:document-units="mm"
     showgrid="false"
     inkscape:zoom="0.7126955"
     inkscape:cx="530.38079"
     inkscape:cy="321.31534"
     inkscape:window-width="1712"
     inkscape:window-height="967"
     inkscape:window-x="0"
     inkscape:window-y="39"
     inkscape:window-maximized="1"
     inkscape:current-layer="g17692"
     inkscape:export-bgcolor="#ffffff00" /><defs
     id="defs1385" /><g
     inkscape:label="Camada 1"
     inkscape:groupmode="layer"
     id="layer1"
     transform="translate(-77.674481,-77.026987)"><g
       id="g13558"
       transform="matrix(1.0070836,0,0,1.0070836,35.730479,-144.89188)"><g
         id="g17692"
         transform="matrix(0.61473209,0,0,0.61473209,-131.22589,145.21616)"><g
           id="g1271"
           inkscape:export-filename="PlayStore\icon.png"
           inkscape:export-xdpi="96"
           inkscape:export-ydpi="96"
           transform="matrix(0.56941597,0,0,0.56941597,171.2016,103.54503)"><rect
             style="fill:#4e901e;fill-opacity:1;stroke-width:0.187964;stroke-linecap:round"
             id="rect728"
             width="11.461172"
             height="2.7839112"
             x="52.745541"
             y="58.574104"
             rx="0.56424272"
             ry="0.52080601"
             transform="matrix(1.6152829,0,0,1.6152829,155.75359,-2.1853698)" /><g
             id="g10130-1-7-7"
             transform="matrix(0.24086554,0,0,0.24086554,375.01068,-0.56290216)"><g
               aria-label="S"
               id="text3956-2-3-0"
               style="font-size:79.8839px;fill:#4e901e;fill-opacity:1;stroke-width:0.416062"
               transform="matrix(1.3643296,0,0,1.3643296,225.49725,-96.691301)"><path
                 d="m -643.49677,295.62552 c 0.96907,-6.98119 5.633,-6.57265 10.60958,-5.53883 1.19617,2.41836 2.7564,4.19963 4.68069,5.3438 1.95029,1.14417 4.08261,1.71625 6.39696,1.71625 2.83442,0 4.94073,-0.53308 6.31894,-1.59923 1.37821,-1.09217 2.06731,-2.58739 2.06731,-4.48567 0,-1.95029 -0.75411,-3.48452 -2.26234,-4.60269 -1.48222,-1.11817 -3.83557,-1.97629 -7.06005,-2.57438 -6.18893,-1.19618 -10.73961,-3.10747 -13.65204,-5.73386 -2.88643,-2.65239 -4.32964,-6.30594 -4.32964,-10.96063 0,-5.30479 1.87228,-9.54342 5.61683,-12.71589 3.74456,-3.17247 8.6853,-4.75871 14.82221,-4.75871 4.18663,0 7.85317,0.84512 10.99964,2.53537 3.14647,1.69025 5.61684,4.10862 7.41111,7.25509 -1.24176,4.88472 -4.05485,7.56958 -10.37555,5.34379 -1.04015,-1.76826 -2.22333,-3.04245 -3.54953,-3.82257 -1.32619,-0.80612 -3.04245,-1.20918 -5.14877,-1.20918 -2.44436,0 -4.32964,0.53308 -5.65584,1.59924 -1.30019,1.06616 -1.95029,2.40536 -1.95029,4.0176 0,1.63825 0.6501,2.96444 1.95029,3.97859 1.30019,0.98815 3.73156,1.79427 7.29409,2.41836 5.92888,1.06616 10.40155,3.04246 13.418,5.92889 3.04245,2.86043 4.56368,6.748 4.56368,11.66273 0,5.56483 -1.78127,9.98549 -5.3438,13.26198 -3.56253,3.25049 -8.64628,4.87573 -15.25127,4.87573 -4.78471,0 -9.10136,-1.04016 -12.94993,-3.12047 -3.82257,-2.10631 -6.69599,-5.04475 -8.62028,-8.81531 z"
                 style="font-weight:bold;font-family:'Segoe UI Variable';-inkscape-font-specification:'Segoe UI Variable Bold';fill:#4e901e;fill-opacity:1"
                 id="path9502-68-6-3"
                 sodipodi:nodetypes="cccscscccsssscccscscccscscc" /></g><path
               style="fill:#4e901e;fill-opacity:1;stroke:none;stroke-width:0.567646;stroke-opacity:1"
               d="m -627.27497,250.05789 -0.57341,-8.02773 c 0.51928,-1.09585 0.39488,-3.38518 5.52626,-3.44046 4.24662,0.0441 4.05949,1.48083 4.79511,2.86706 l -0.21503,8.60113 z"
               id="path4146-86-9-9"
               sodipodi:nodetypes="cccccc" /><path
               style="fill:#4e901e;fill-opacity:1;stroke:none;stroke-width:0.567646;stroke-opacity:1"
               d="m -627.27497,318.05971 -0.57341,8.02773 c 0.51928,1.09585 0.39488,3.38518 5.52626,3.44046 4.24662,-0.0441 4.05949,-1.48083 4.79511,-2.86706 l -0.21503,-8.60113 z"
               id="path4146-9-02-2-3"
               sodipodi:nodetypes="cccccc" /></g><g
             id="g10130-1-7-7-0"
             transform="matrix(0.24086554,0,0,0.24086554,375.01068,25.730259)"><g
               aria-label="S"
               id="text3956-2-3-0-7"
               style="font-size:79.8839px;fill:#4e901e;fill-opacity:1;stroke-width:0.416062"
               transform="matrix(1.3643296,0,0,1.3643296,225.49725,-96.691301)"><path
                 d="m -643.49677,295.62552 c 0.96907,-6.98119 5.633,-6.57265 10.60958,-5.53883 1.19617,2.41836 2.7564,4.19963 4.68069,5.3438 1.95029,1.14417 4.08261,1.71625 6.39696,1.71625 2.83442,0 4.94073,-0.53308 6.31894,-1.59923 1.37821,-1.09217 2.06731,-2.58739 2.06731,-4.48567 0,-1.95029 -0.75411,-3.48452 -2.26234,-4.60269 -1.48222,-1.11817 -3.83557,-1.97629 -7.06005,-2.57438 -6.18893,-1.19618 -10.73961,-3.10747 -13.65204,-5.73386 -2.88643,-2.65239 -4.32964,-6.30594 -4.32964,-10.96063 0,-5.30479 1.87228,-9.54342 5.61683,-12.71589 3.74456,-3.17247 8.6853,-4.75871 14.82221,-4.75871 4.18663,0 7.85317,0.84512 10.99964,2.53537 3.14647,1.69025 5.61684,4.10862 7.41111,7.25509 -1.24176,4.88472 -4.05485,7.56958 -10.37555,5.34379 -1.04015,-1.76826 -2.22333,-3.04245 -3.54953,-3.82257 -1.32619,-0.80612 -3.04245,-1.20918 -5.14877,-1.20918 -2.44436,0 -4.32964,0.53308 -5.65584,1.59924 -1.30019,1.06616 -1.95029,2.40536 -1.95029,4.0176 0,1.63825 0.6501,2.96444 1.95029,3.97859 1.30019,0.98815 3.73156,1.79427 7.29409,2.41836 5.92888,1.06616 10.40155,3.04246 13.418,5.92889 3.04245,2.86043 4.56368,6.748 4.56368,11.66273 0,5.56483 -1.78127,9.98549 -5.3438,13.26198 -3.56253,3.25049 -8.64628,4.87573 -15.25127,4.87573 -4.78471,0 -9.10136,-1.04016 -12.94993,-3.12047 -3.82257,-2.10631 -6.69599,-5.04475 -8.62028,-8.81531 z"
                 style="font-weight:bold;font-family:'Segoe UI Variable';-inkscape-font-specification:'Segoe UI Variable Bold';fill:#4e901e;fill-opacity:1"
                 id="path9502-68-6-3-1"
                 sodipodi:nodetypes="cccscscccsssscccscscccscscc" /></g><path
               style="fill:#4e901e;fill-opacity:1;stroke:none;stroke-width:0.567646;stroke-opacity:1"
               d="m -627.27497,250.05789 -0.57341,-8.02773 c 0.51928,-1.09585 0.39488,-3.38518 5.52626,-3.44046 4.24662,0.0441 4.05949,1.48083 4.79511,2.86706 l -0.21503,8.60113 z"
               id="path4146-86-9-9-1"
               sodipodi:nodetypes="cccccc" /><path
               style="fill:#4e901e;fill-opacity:1;stroke:none;stroke-width:0.567646;stroke-opacity:1"
               d="m -627.27497,318.05971 -0.57341,8.02773 c 0.51928,1.09585 0.39488,3.38518 5.52626,3.44046 4.24662,-0.0441 4.05949,-1.48083 4.79511,-2.86706 l -0.21503,-8.60113 z"
               id="path4146-9-02-2-3-7"
               sodipodi:nodetypes="cccccc" /></g><g
             id="g10130-1-7-7-0-1"
             transform="matrix(0.24086554,0,0,0.24086554,375.01068,52.88549)"><g
               aria-label="S"
               id="text3956-2-3-0-7-8"
               style="font-size:79.8839px;fill:#4e901e;fill-opacity:1;stroke-width:0.416062"
               transform="matrix(1.3643296,0,0,1.3643296,225.49725,-96.691301)"><path
                 d="m -643.49677,295.62552 c 0.96907,-6.98119 5.633,-6.57265 10.60958,-5.53883 1.19617,2.41836 2.7564,4.19963 4.68069,5.3438 1.95029,1.14417 4.08261,1.71625 6.39696,1.71625 2.83442,0 4.94073,-0.53308 6.31894,-1.59923 1.37821,-1.09217 2.06731,-2.58739 2.06731,-4.48567 0,-1.95029 -0.75411,-3.48452 -2.26234,-4.60269 -1.48222,-1.11817 -3.83557,-1.97629 -7.06005,-2.57438 -6.18893,-1.19618 -10.73961,-3.10747 -13.65204,-5.73386 -2.88643,-2.65239 -4.32964,-6.30594 -4.32964,-10.96063 0,-5.30479 1.87228,-9.54342 5.61683,-12.71589 3.74456,-3.17247 8.6853,-4.75871 14.82221,-4.75871 4.18663,0 7.85317,0.84512 10.99964,2.53537 3.14647,1.69025 5.61684,4.10862 7.41111,7.25509 -1.24176,4.88472 -4.05485,7.56958 -10.37555,5.34379 -1.04015,-1.76826 -2.22333,-3.04245 -3.54953,-3.82257 -1.32619,-0.80612 -3.04245,-1.20918 -5.14877,-1.20918 -2.44436,0 -4.32964,0.53308 -5.65584,1.59924 -1.30019,1.06616 -1.95029,2.40536 -1.95029,4.0176 0,1.63825 0.6501,2.96444 1.95029,3.97859 1.30019,0.98815 3.73156,1.79427 7.29409,2.41836 5.92888,1.06616 10.40155,3.04246 13.418,5.92889 3.04245,2.86043 4.56368,6.748 4.56368,11.66273 0,5.56483 -1.78127,9.98549 -5.3438,13.26198 -3.56253,3.25049 -8.64628,4.87573 -15.25127,4.87573 -4.78471,0 -9.10136,-1.04016 -12.94993,-3.12047 -3.82257,-2.10631 -6.69599,-5.04475 -8.62028,-8.81531 z"
                 style="font-weight:bold;font-family:'Segoe UI Variable';-inkscape-font-specification:'Segoe UI Variable Bold';fill:#4e901e;fill-opacity:1"
                 id="path9502-68-6-3-1-7"
                 sodipodi:nodetypes="cccscscccsssscccscscccscscc" /></g><path
               style="fill:#4e901e;fill-opacity:1;stroke:none;stroke-width:0.567646;stroke-opacity:1"
               d="m -627.27497,250.05789 -0.57341,-8.02773 c 0.51928,-1.09585 0.39488,-3.38518 5.52626,-3.44046 4.24662,0.0441 4.05949,1.48083 4.79511,2.86706 l -0.21503,8.60113 z"
               id="path4146-86-9-9-1-8"
               sodipodi:nodetypes="cccccc" /><path
               style="fill:#4e901e;fill-opacity:1;stroke:none;stroke-width:0.567646;stroke-opacity:1"
               d="m -627.27497,318.05971 -0.57341,8.02773 c 0.51928,1.09585 0.39488,3.38518 5.52626,3.44046 4.24662,-0.0441 4.05949,-1.48083 4.79511,-2.86706 l -0.21503,-8.60113 z"
               id="path4146-9-02-2-3-7-6"
               sodipodi:nodetypes="cccccc" /></g><rect
             style="fill:#4e901e;fill-opacity:1;stroke-width:0.290832;stroke-linecap:round"
             id="rect728-9"
             width="27.438978"
             height="2.7839112"
             x="52.745541"
             y="42.029499"
             rx="1.3508431"
             ry="0.52080601"
             transform="matrix(1.6152829,0,0,1.6152829,155.75359,-2.1853698)" /><rect
             style="fill:#4e901e;fill-opacity:1;stroke-width:0.290832;stroke-linecap:round"
             id="rect728-9-5"
             width="27.438978"
             height="2.7839112"
             x="52.745541"
             y="58.574104"
             rx="1.3508431"
             ry="0.52080601"
             transform="matrix(1.6152829,0,0,1.6152829,155.75359,-2.1853698)" /><rect
             style="fill:#4e901e;fill-opacity:1;stroke-width:0.290832;stroke-linecap:round"
             id="rect728-9-8"
             width="27.438978"
             height="2.7839112"
             x="52.745541"
             y="75.385551"
             rx="1.3508431"
             ry="0.52080601"
             transform="matrix(1.6152829,0,0,1.6152829,155.75359,-2.1853698)" /><path
             style="fill:#4b1e0a;fill-opacity:1;stroke-width:0.693478;stroke-linecap:round"
             d="m 282.93522,128.14496 0.29246,-10.09677 33.72765,-10.41685 c 0.92883,-0.64317 1.57054,-1.28633 1.42173,-1.9295 l -0.2031,17.97481 -35.44185,9.74904 z"
             id="path12866-9"
             sodipodi:nodetypes="ccccccc" /><path
             style="fill:#823200;fill-opacity:1;stroke-width:0.693478;stroke-linecap:round"
             d="m 246.39223,141.76569 0.30466,-15.74065 c 0.1203,1.05003 -0.19712,2.28244 3.04657,2.03105 l 33.6139,-10.25681 -0.2031,18.68568 z"
             id="path12801-3"
             sodipodi:nodetypes="cccccc" /><path
             style="fill:#f6e4c1;fill-opacity:1;stroke-width:0.693478;stroke-linecap:round"
             d="m 246.22646,156.19629 v -16.0453 c 0,0 4.52348,1.12338 6.29626,0 3.54544,-2.24668 5.73976,-6.30677 11.577,-7.10868 3.91092,-0.53727 7.94791,1.55711 11.78009,0.60931 4.50228,-1.11353 5.575,-5.70073 11.57699,-7.10867 4.22663,-0.99148 9.00692,1.21963 13.20183,0.10154 3.91908,-1.04456 5.32383,-4.50816 9.95215,-5.9916 3.04103,-0.97469 7.9211,-0.60931 7.9211,-0.60931 v 15.13134 c -0.27495,0.98167 -0.39037,1.96335 -2.23415,2.94502 l -67.12624,20.71672 c -1.5778,0.17373 -2.71605,-1.19552 -2.94503,-2.64037 z"
             id="path12403-7-6"
             sodipodi:nodetypes="ccssssssccccc" /><path
             id="path12403-3"
             style="fill:#f9efda;fill-opacity:1;stroke-width:0.693478;stroke-linecap:round"
             d="m 283.51761,128.25378 c -2.75546,1.91458 -4.22307,4.47616 -7.43469,5.27047 -3.83219,0.9478 -7.86924,-1.14705 -11.78016,-0.60978 -5.83723,0.80191 -8.03164,4.86245 -11.57707,7.10913 -1.77279,1.12338 -6.29626,0 -6.29626,0 v 16.04502 c 0.22898,1.44484 1.36724,2.81439 2.94504,2.64066 l 34.14314,-10.53734 z" /><path
             style="fill:#af6432;fill-opacity:1;stroke-width:0.693478;stroke-linecap:round"
             d="m 250.18264,128.62278 c -3.17266,0.15261 -4.06895,-1.13248 -3.60873,-3.27432 l 31.06277,-34.431417 5.90237,-0.0964 -0.20311,27.443827 z"
             id="path13000-1"
             sodipodi:nodetypes="cccccc" /><path
             style="fill:#af6432;fill-opacity:1;stroke-width:0.693478;stroke-linecap:round"
             d="m 281.3445,118.7361 35.80845,-10.95623 c 0.83783,-0.29255 1.35564,-0.85941 1.52328,-1.7264 l -0.0474,-1.54819 C 307.97148,95.136203 295.56148,93.654073 283.44266,90.861673 282.93779,100.04611 280.1596,109.76288 281.3445,118.7361 Z"
             id="path13002-0"
             sodipodi:nodetypes="cccccc" /><path
             style="fill:none;fill-opacity:1;stroke:#26c15d;stroke-width:3.78519;stroke-linecap:round;stroke-dasharray:none;stroke-opacity:1"
             d="m 294.13813,84.53879 c 0.74186,-5.607661 4.614,-7.666309 8.69491,-6.752487"
             id="path13547-2"
             sodipodi:nodetypes="cc" /><circle
             style="fill:#ea0632;fill-opacity:1;stroke-width:0.693478;stroke-linecap:round"
             id="path13334-0"
             cx="291.46698"
             cy="92.875916"
             r="10.053704" /></g></g></g></g></svg>
